<svg width="1200" height="630" viewBox="0 0 1200 630" fill="none" xmlns="http://www.w3.org/2000/svg">
<rect width="1200" height="630" fill="white"/>
<g clip-path="url(#clip0_0_3)">
<path d="M347.496 421.467H338.774L337.281 413.683H326.67L325.177 421.467H317.234L326.038 378.553H338.692L347.496 421.467V421.467ZM327.77 407.856H336.099L331.932 386.157L327.765 407.856H327.77Z" fill="#1C355E"/>
<path d="M354.251 378.553H362.896V415.334H377.12V421.467H354.251V378.553Z" fill="#1C355E"/>
<path d="M392.526 396.638H404.396V402.771H392.526V415.34H407.458V421.472H383.88V378.558H407.458V384.69H392.526V396.644V396.638Z" fill="#1C355E"/>
<path d="M427.189 378.062C435.6 378.062 439.92 381.987 439.92 388.849V390.201H431.749V388.424C431.749 385.361 430.174 384.194 427.429 384.194C424.683 384.194 423.109 385.361 423.109 388.424C423.109 397.254 440.007 398.906 440.007 411.17C440.007 418.038 435.606 421.957 427.118 421.957C418.631 421.957 414.229 418.033 414.229 411.17V408.532H422.401V411.595C422.401 414.659 424.127 415.765 426.878 415.765C429.63 415.765 431.356 414.664 431.356 411.595C431.356 402.765 414.458 401.113 414.458 388.849C414.458 381.981 418.778 378.062 427.189 378.062V378.062Z" fill="#1C355E"/>
<path d="M477.018 421.467H468.297L466.804 413.683H456.192L454.699 421.467H446.762L455.566 378.553H468.22L477.024 421.467H477.018ZM457.293 407.856H465.622L461.455 386.157L457.287 407.856H457.293Z" fill="#1C355E"/>
<path d="M494.701 407.24L483.779 378.553H492.816L499.419 398.11L506.022 378.553H514.275L503.352 407.24V421.461H494.707V407.24H494.701Z" fill="#1C355E"/>
<path d="M521.03 378.553H529.675V421.467H521.03V378.553Z" fill="#1C355E"/>
<path d="M565.395 396.638H577.325V402.771H565.395V415.34H580.409V421.472H556.706V378.558H580.409V384.69H565.395V396.644V396.638Z" fill="#1C355E"/>
<path d="M587.202 378.553H595.891V415.334H610.191V421.467H587.202V378.553V378.553Z" fill="#1C355E"/>
<path d="M625.673 396.638H637.603V402.771H625.673V415.34H640.687V421.472H616.984V378.558H640.687V384.69H625.673V396.644V396.638Z" fill="#1C355E"/>
<path d="M673.394 405.463V411.165C673.394 418.033 668.971 421.952 660.434 421.952C651.898 421.952 647.474 418.027 647.474 411.165V388.849C647.474 381.981 651.898 378.062 660.434 378.062C668.971 378.062 673.394 381.987 673.394 388.849V393.019H665.179V388.419C665.179 385.355 663.441 384.189 660.674 384.189C657.907 384.189 656.169 385.355 656.169 388.419V411.59C656.169 414.653 657.907 415.76 660.674 415.76C663.441 415.76 665.179 414.659 665.179 411.59V405.458H673.394V405.463Z" fill="#1C355E"/>
<path d="M680.187 378.553H707.05V384.685H697.963V421.467H689.274V384.685H680.187V378.553Z" fill="#1C355E"/>
<path d="M732.016 421.467C731.542 420.365 731.226 419.69 731.226 416.196V409.453C731.226 405.469 729.488 403.997 725.539 403.997H722.537V421.467H713.848V378.553H726.966C735.971 378.553 739.844 381.802 739.844 388.424V391.798C739.844 396.213 738.025 399.091 734.157 400.503C738.504 401.915 739.926 405.163 739.926 409.638V416.261C739.926 418.343 740.008 419.875 740.874 421.472H732.027L732.016 421.467ZM722.537 384.685V397.865H725.936C729.178 397.865 731.15 396.764 731.15 393.33V389.1C731.15 386.037 729.804 384.685 726.726 384.685H722.537Z" fill="#1C355E"/>
<path d="M747.656 388.849C747.656 381.981 752.319 378.062 760.85 378.062C769.381 378.062 774.044 381.987 774.044 388.849V411.165C774.044 418.033 769.381 421.952 760.85 421.952C752.319 421.952 747.656 418.027 747.656 411.165V388.849V388.849ZM756.345 411.595C756.345 414.659 758.083 415.825 760.85 415.825C763.618 415.825 765.355 414.659 765.355 411.595V388.424C765.355 385.361 763.618 384.194 760.85 384.194C758.083 384.194 756.345 385.361 756.345 388.424V411.595Z" fill="#1C355E"/>
<path d="M788.66 390.381V421.461H780.838V378.547H791.738L800.667 404.231V378.547H808.408V421.461H799.479L788.655 390.381H788.66Z" fill="#1C355E"/>
<path d="M815.207 378.553H823.896V421.467H815.207V378.553Z" fill="#1C355E"/>
<path d="M856.293 405.463V411.165C856.293 418.033 851.869 421.952 843.333 421.952C834.796 421.952 830.373 418.027 830.373 411.165V388.849C830.373 381.981 834.796 378.062 843.333 378.062C851.869 378.062 856.293 381.987 856.293 388.849V393.019H848.078V388.419C848.078 385.355 846.34 384.189 843.572 384.189C840.805 384.189 839.067 385.355 839.067 388.419V411.59C839.067 414.653 840.805 415.76 843.572 415.76C846.34 415.76 848.078 414.659 848.078 411.59V405.458H856.293V405.463Z" fill="#1C355E"/>
<path d="M876.122 378.062C884.577 378.062 888.918 381.987 888.918 388.849V390.201H880.703V388.424C880.703 385.361 879.123 384.194 876.356 384.194C873.589 384.194 872.009 385.361 872.009 388.424C872.009 397.254 888.995 398.906 888.995 411.17C888.995 418.038 884.571 421.957 876.035 421.957C867.498 421.957 863.075 418.033 863.075 411.17V408.532H871.29V411.595C871.29 414.659 873.028 415.765 875.795 415.765C878.562 415.765 880.3 414.664 880.3 411.595C880.3 402.765 863.314 401.113 863.314 388.849C863.314 381.981 867.662 378.062 876.116 378.062H876.122Z" fill="#1C355E"/>
<path d="M322.627 477.669C322.627 482.406 326.168 486.854 330.979 486.854H362.755V462.772H368.382V492.942H330.984C322.72 492.942 317 486.074 317 477.375C317 469.253 322.175 463.257 329.622 462.576V468.572C325.536 469.346 322.633 473.505 322.633 477.664L322.627 477.669ZM343.78 465.389C343.78 467.324 342.419 468.774 340.605 468.774C338.79 468.774 337.429 467.324 337.429 465.389C337.429 463.454 338.883 462.004 340.605 462.004C342.419 462.004 343.78 463.552 343.78 465.389ZM351.952 465.389C351.952 467.324 350.59 468.774 348.776 468.774C346.962 468.774 345.6 467.324 345.6 465.389C345.6 463.454 347.055 462.004 348.776 462.004C350.59 462.004 351.952 463.552 351.952 465.389Z" fill="#1C355E"/>
<path d="M388.816 486.859V492.953H377.469V450.116H383.096V486.865H388.816V486.859Z" fill="#1C355E"/>
<path d="M410.971 492.948H387.912V486.854H399.531V462.772H405.159V486.854H410.971V492.948ZM401.531 501.167C401.531 503.102 400.169 504.552 398.355 504.552C396.541 504.552 395.179 503.102 395.179 501.167C395.179 499.232 396.633 497.782 398.355 497.782C400.169 497.782 401.531 499.33 401.531 501.167ZM409.702 501.167C409.702 503.102 408.34 504.552 406.526 504.552C404.712 504.552 403.35 503.102 403.35 501.167C403.35 499.232 404.805 497.782 406.526 497.782C408.34 497.782 409.702 499.33 409.702 501.167Z" fill="#1C355E"/>
<path d="M410.062 492.948V486.854H421.681V462.772H427.309V492.942H410.056L410.062 492.948ZM427.946 453.462C427.946 455.397 426.584 456.847 424.77 456.847C422.956 456.847 421.594 455.397 421.594 453.462C421.594 451.527 423.049 450.077 424.77 450.077C426.584 450.077 427.946 451.626 427.946 453.462Z" fill="#1C355E"/>
<path d="M457.728 492.757C456.366 492.953 455.005 492.953 453.822 492.953C442.927 492.953 436.39 487.055 436.39 477.386C436.39 469.744 441.02 462.205 451.006 462.205C462.446 462.205 466.352 471.101 466.352 480.291C466.352 484.837 465.355 489.383 463.993 492.958C462.179 497.793 459.183 503.015 454.367 509.011L449.557 504.852C453.278 500.791 456.001 496.534 457.728 492.762V492.757ZM442.655 477.767C442.655 485.311 448.467 487.246 454.275 487.246C455.909 487.246 457.636 487.05 459.177 486.859C459.815 485.409 460.174 483.376 460.174 481.06C460.174 475.26 457.816 468.294 451.186 468.294C446.283 468.294 442.649 472.551 442.649 477.773L442.655 477.767Z" fill="#1C355E"/>
<path d="M486.328 486.859H491.411V492.953H484.966C482.88 498.949 480.064 504.269 475.798 509.005L470.895 505.043C481.338 491.503 483.425 476.514 477.612 462.783H484.242C487.418 471.679 487.51 480.771 486.328 486.865V486.859Z" fill="#1C355E"/>
<path d="M513.566 486.859V492.953H490.507V486.859H502.126V462.778H507.754V486.859H513.566ZM504.305 453.501C504.305 455.436 502.944 456.885 501.13 456.885C499.315 456.885 497.954 455.436 497.954 453.501C497.954 451.566 499.408 450.116 501.13 450.116C502.944 450.116 504.305 451.664 504.305 453.501ZM512.477 453.501C512.477 455.436 511.115 456.885 509.301 456.885C507.487 456.885 506.125 455.436 506.125 453.501C506.125 451.566 507.579 450.116 509.301 450.116C511.115 450.116 512.477 451.664 512.477 453.501Z" fill="#1C355E"/>
<path d="M548.159 486.859C550.066 483.572 551.248 480.672 551.248 477.189C551.248 468.774 544.983 462.298 537.176 462.298H528.733L537.095 450.072H529.888L522.381 461.328V468.288H537.182C541.905 468.288 545.174 473.221 545.174 477.767C545.174 482.313 541.633 486.859 537.182 486.859H512.668V492.953H556.069V486.859H548.17H548.159Z" fill="#1C355E"/>
<path d="M555.148 492.948V486.854H564.774V450.012H570.494V492.948H555.148Z" fill="#1C355E"/>
<path d="M612.893 492.948H579.57V486.854H602.357V450.105H608.077V486.854H612.887V492.948H612.893ZM589.25 495.095C591.102 495.095 592.432 495.798 593.69 497.139L591.969 499.679C590.313 497.706 586.603 497.139 586.407 501.162C586.472 503.418 588.33 504.269 590.182 504.476H593.625V507.299H580.708V504.476H584.947C581.901 500.524 584.549 495.09 589.25 495.09V495.095ZM584.38 450.105H590.007V482.019H584.38V450.105Z" fill="#1C355E"/>
<path d="M611.989 492.948V486.854H621.615V450.012H627.335V492.948H611.989Z" fill="#1C355E"/>
<path d="M655.112 477.669C655.112 482.313 658.925 486.854 663.463 486.854H680.716V474.475C680.716 468.288 685.798 462.772 691.611 462.772H700.872V486.854H706.685V492.948H695.245V468.774H691.611C689.16 468.774 686.343 471.384 686.343 474.48V492.953H663.463C655.384 492.953 649.479 486.085 649.479 477.386C649.479 469.455 654.562 463.268 662.101 462.587V468.583C658.195 469.357 655.112 473.418 655.112 477.675V477.669ZM678.357 501.167C678.357 503.102 676.995 504.552 675.181 504.552C673.367 504.552 672.005 503.102 672.005 501.167C672.005 499.232 673.46 497.782 675.181 497.782C676.995 497.782 678.357 499.33 678.357 501.167ZM686.528 501.167C686.528 503.102 685.166 504.552 683.352 504.552C681.538 504.552 680.176 503.102 680.176 501.167C680.176 499.232 681.631 497.782 683.352 497.782C685.166 497.782 686.528 499.33 686.528 501.167Z" fill="#1C355E"/>
<path d="M726.808 459.491H723.365C721.513 459.284 719.655 458.444 719.59 456.21C719.786 452.231 723.496 452.792 725.152 454.743L726.873 452.231C725.615 450.906 724.291 450.208 722.434 450.208C717.732 450.208 715.079 455.583 718.13 459.491H713.892V462.282H726.808V459.491V459.491Z" fill="#1C355E"/>
<path d="M717.4 464.418V486.859H705.78V492.948H723.027V464.418H717.4Z" fill="#1C355E"/>
<path d="M743.456 486.859V492.953H732.109V450.116H737.736V486.865H743.456V486.859Z" fill="#1C355E"/>
<path d="M798.39 486.859V492.953H794.484C793.215 492.953 792.125 492.375 790.126 490.44C787.767 492.664 784.95 494.016 781.862 494.016C777.956 494.016 775.504 492.468 772.873 489.568C770.694 492.468 767.97 494.016 763.977 494.016C760.801 494.016 758.437 492.855 756.078 490.44C754.444 492.277 753.175 492.953 751.175 492.953H742.552V486.859H752.265V462.778H758.165V480.956C758.165 484.532 760.796 487.437 763.977 487.437C767.338 487.437 770.062 484.537 770.062 480.956V462.778H775.782V480.956C775.782 484.341 778.686 487.437 781.867 487.437C785.049 487.437 787.952 484.63 787.952 480.956V462.778H793.58V486.859H798.39Z" fill="#1C355E"/>
<path d="M820.54 492.948H797.48V486.854H809.1V462.772H814.727V486.854H820.54V492.948ZM811.099 501.167C811.099 503.102 809.737 504.552 807.923 504.552C806.109 504.552 804.747 503.102 804.747 501.167C804.747 499.232 806.202 497.782 807.923 497.782C809.737 497.782 811.099 499.33 811.099 501.167ZM819.27 501.167C819.27 503.102 817.909 504.552 816.094 504.552C814.28 504.552 812.919 503.102 812.919 501.167C812.919 499.232 814.373 497.782 816.094 497.782C817.909 497.782 819.27 499.33 819.27 501.167Z" fill="#1C355E"/>
<path d="M829.349 477.282C829.349 468.774 836.523 462.68 844.237 462.68C847.87 462.68 851.411 463.939 854.587 466.937L851.319 471.87C849.412 469.744 847.413 468.294 843.872 468.294C838.969 468.294 835.793 472.84 835.793 477.478C835.793 483.474 840.876 486.859 845.779 486.859H859.85V492.953H819.63V486.859H832.16C830.253 483.283 829.343 480.378 829.343 477.288L829.349 477.282Z" fill="#1C355E"/>
<path d="M858.945 492.948V486.854H868.571V450.012H874.291V492.948H858.945Z" fill="#1C355E"/>
<path d="M883.373 492.948V450.11H889V492.948H883.373Z" fill="#1C355E"/>
<path d="M588.814 335.623H417.236L588.814 121.011V335.623Z" fill="#2B5597"/>
<path d="M788.96 121H617.414V163.914H788.96V121Z" fill="#E1251B"/>
<path d="M788.96 206.822H617.414V249.736H788.96V206.822Z" fill="#E1251B"/>
<path d="M788.96 292.715H617.414V335.628H788.96V292.715Z" fill="#E1251B"/>
<path d="M617.414 206.904V335.628H660.304V206.904H617.414Z" fill="#E1251B"/>
</g>
<defs>
<clipPath id="clip0_0_3">
<rect width="572" height="388" fill="white" transform="translate(317 121)"/>
</clipPath>
</defs>
</svg>
