<svg width="1200" height="630" viewBox="0 0 1200 630" fill="none" xmlns="http://www.w3.org/2000/svg">
<rect width="1200" height="630" fill="#F1F671"/>
<g clip-path="url(#clip0_0_3)">
<path d="M274 262.805H345.62C368.604 262.805 381.602 272.774 381.602 291.08C381.602 302.425 373.769 309.644 367.485 312.738C376.695 316.52 384.529 324.856 384.529 337.06C384.529 355.366 371.272 366.281 348.117 366.281H274V262.805ZM342.693 303.284C350.527 303.284 354.831 300.276 354.831 294.518C354.831 288.76 350.527 285.752 342.693 285.752H301.116V303.37H342.693V303.284ZM301.116 343.248H345.276C352.937 343.248 357.155 339.467 357.155 333.88C357.155 328.294 352.937 324.512 345.276 324.512H301.116V343.248Z" fill="black"/>
<path d="M523.164 314.543C523.164 345.397 497.167 368 460.927 368C424.686 368 398.604 345.397 398.604 314.543C398.604 283.689 424.686 261.086 460.927 261.086C497.167 261.086 523.164 283.689 523.164 314.543ZM427.613 314.543C427.613 332.248 441.903 343.506 460.927 343.506C479.951 343.506 494.241 332.248 494.241 314.543C494.241 296.839 479.951 285.58 460.927 285.58C441.903 285.58 427.613 296.839 427.613 314.543Z" fill="black"/>
<path d="M661.54 314.543C661.54 345.397 635.544 368 599.302 368C563.062 368 536.979 345.397 536.979 314.543C536.979 283.689 563.148 261.086 599.302 261.086C635.456 261.086 661.54 283.689 661.54 314.543ZM565.989 314.543C565.989 332.248 580.279 343.506 599.302 343.506C618.326 343.506 632.616 332.248 632.616 314.543C632.616 296.839 618.326 285.58 599.302 285.58C580.279 285.58 565.989 296.839 565.989 314.543Z" fill="black"/>
<path d="M708.799 306.464L757.004 262.805H795.57L747.623 305.777L799.184 366.281H763.203L727.219 323.911L708.714 340.498V366.281H680.391V262.805H708.714V306.464H708.799Z" fill="black"/>
<path d="M922.368 314.543C922.368 313.597 922.283 312.566 922.195 311.621V262.805H908.335L898.007 271.227C887.764 264.782 874.851 261 860.13 261C823.891 261 797.807 283.603 797.807 314.457C797.807 345.311 823.975 367.914 860.13 367.914C874.763 367.914 887.676 364.133 898.007 357.687L908.335 366.109H922.195V317.293C922.195 316.348 922.368 315.402 922.368 314.371V314.543ZM860.13 343.506C841.106 343.506 826.815 332.247 826.815 314.543C826.815 296.838 841.106 285.58 860.13 285.58C879.153 285.58 893.444 296.838 893.444 314.543C893.444 332.247 879.153 343.506 860.13 343.506Z" fill="black"/>
</g>
<defs>
<clipPath id="clip0_0_3">
<rect width="651" height="107" fill="white" transform="translate(274 261)"/>
</clipPath>
</defs>
</svg>
