<svg width="1200" height="630" viewBox="0 0 1200 630" fill="none" xmlns="http://www.w3.org/2000/svg">
<rect width="1200" height="630" fill="white"/>
<path d="M425 315C425 218.35 503.35 140 600 140C696.65 140 775 218.35 775 315C775 411.65 696.65 490 600 490C503.35 490 425 411.65 425 315Z" fill="#10B981"/>
<path d="M531.25 344.167V299.104C521.35 294.292 512.138 288.458 503.75 281.604V344.167H531.25ZM503.75 402.5H476.25V373.333H448.75V344.167H476.25V242.083H503.75V262.938C528.5 285.833 562.462 300.417 600 300.417C637.538 300.417 671.5 285.833 696.25 262.938V242.083H723.75V344.167H751.25V373.333H723.75V402.5H696.25V373.333H503.75V402.5ZM668.75 299.104V344.167H696.25V281.604C687.862 288.458 678.65 294.292 668.75 299.104ZM655 344.167V305.083C646.2 308.438 636.987 310.917 627.5 312.667V344.167H655ZM613.75 344.167V314.417L600 315L586.25 314.417V344.167H613.75ZM572.5 344.167V312.667C563.013 310.917 553.8 308.438 545 305.083V344.167H572.5Z" fill="white"/>
</svg>
