<svg width="1200" height="630" viewBox="0 0 1200 630" fill="none" xmlns="http://www.w3.org/2000/svg">
<rect width="1200" height="630" fill="#1E1E1E"/>
<g clip-path="url(#clip0_0_3)">
<path d="M704.862 334.513C695.764 339.766 684.651 342.393 671.524 342.393C660.967 342.393 651.521 340.596 643.117 336.932C634.713 333.268 627.629 328.291 621.864 321.862C616.1 315.502 611.654 307.967 608.598 299.326C605.542 290.685 603.945 281.422 603.945 271.468C603.945 261.513 605.473 251.766 608.598 242.987C611.654 234.208 616.1 226.604 621.864 220.106C627.629 213.608 634.713 208.492 643.117 204.759C651.521 201.027 660.967 199.229 671.524 199.229C682.081 199.229 691.666 201.096 700 204.759C708.335 208.423 715.419 213.608 721.184 220.106C726.949 226.604 731.394 234.277 734.45 242.987C737.506 251.766 739.103 261.237 739.103 271.468C739.103 281.699 737.575 290.685 734.45 299.257C731.394 307.829 726.949 315.364 721.184 321.862L738.339 337.416L724.309 352.002L704.862 334.582V334.513ZM700.417 302.921C702.987 299.465 705.071 295.179 706.599 290.063C708.127 284.948 708.891 278.726 708.891 271.468C708.891 265.454 708.196 259.647 706.876 254.048C705.557 248.448 703.404 243.402 700.417 238.978C697.431 234.554 693.611 231.028 688.888 228.47C684.165 225.843 678.331 224.53 671.524 224.53C664.718 224.53 658.953 225.843 654.16 228.47C649.368 231.097 645.548 234.623 642.631 238.978C639.714 243.333 637.561 248.379 636.172 254.048C634.852 259.647 634.158 265.454 634.158 271.468C634.158 277.482 634.852 282.805 636.172 288.266C637.491 293.727 639.645 298.566 642.631 302.921C645.618 307.276 649.438 310.733 654.16 313.359C658.883 315.986 664.718 317.3 671.524 317.3C674.719 317.3 677.15 317.161 678.817 316.885C680.484 316.608 682.081 316.125 683.609 315.364L670.691 303.681L684.72 288.75L700.348 302.921H700.417Z" fill="white"/>
<path d="M782.79 305.548C784.457 308.728 786.679 311.355 789.458 313.29C792.236 315.295 795.431 316.747 799.181 317.714C802.932 318.682 806.752 319.166 810.711 319.166C813.419 319.166 816.267 318.959 819.392 318.475C822.448 318.06 825.366 317.161 828.074 315.917C830.783 314.673 833.006 312.876 834.811 310.663C836.617 308.451 837.52 305.617 837.52 302.161C837.52 298.428 836.339 295.455 833.978 293.174C831.616 290.893 828.491 288.957 824.671 287.436C820.851 285.916 816.475 284.533 811.614 283.427C806.752 282.252 801.821 281.008 796.82 279.625C791.68 278.381 786.679 276.791 781.818 274.924C776.956 273.058 772.58 270.707 768.76 267.735C764.94 264.832 761.815 261.099 759.453 256.744C757.092 252.319 755.911 246.997 755.911 240.706C755.911 233.655 757.439 227.572 760.426 222.387C763.412 217.202 767.371 212.917 772.302 209.46C777.164 206.004 782.721 203.446 788.833 201.787C794.945 200.128 801.126 199.298 807.307 199.298C814.531 199.298 821.407 200.128 828.005 201.718C834.603 203.308 840.507 205.935 845.646 209.46C850.786 213.055 854.884 217.617 857.87 223.147C860.857 228.678 862.385 235.452 862.385 243.333H833.144C832.867 239.254 832.033 235.867 830.575 233.171C829.116 230.475 827.102 228.401 824.671 226.811C822.24 225.29 819.462 224.184 816.267 223.562C813.142 222.94 809.669 222.594 805.988 222.594C803.557 222.594 801.126 222.871 798.695 223.355C796.264 223.839 794.042 224.737 792.027 226.051C790.013 227.364 788.416 228.954 787.096 230.821C785.846 232.756 785.151 235.176 785.151 238.079C785.151 240.775 785.638 242.918 786.679 244.577C787.721 246.236 789.735 247.757 792.722 249.209C795.709 250.591 799.876 252.043 805.224 253.425C810.572 254.808 817.517 256.605 826.13 258.817C828.699 259.301 832.242 260.269 836.826 261.583C841.41 262.896 845.924 265.039 850.439 268.011C854.953 270.915 858.843 274.855 862.107 279.763C865.371 284.671 867.038 290.962 867.038 298.635C867.038 304.926 865.788 310.733 863.357 316.055C860.926 321.447 857.315 326.079 852.453 329.95C847.66 333.821 841.687 336.863 834.534 339.075C827.38 341.218 819.184 342.324 809.808 342.324C802.237 342.324 794.875 341.425 787.791 339.559C780.637 337.692 774.386 334.789 768.899 330.849C763.412 326.908 759.106 321.862 755.911 315.71C752.716 309.557 751.188 302.299 751.258 293.865H780.498C780.498 298.497 781.331 302.368 782.998 305.548H782.79Z" fill="white"/>
<path d="M987.472 202.478V227.779H914.892V257.089H981.499V280.454H914.892V313.982H989V339.282H884.61V202.478H987.403H987.472Z" fill="white"/>
<path d="M445.103 413.387C429.892 421.13 412.668 425.554 394.332 425.554C332.726 425.554 282.719 375.851 282.719 314.465C282.719 253.08 332.726 203.446 394.332 203.446C455.938 203.446 505.945 253.149 505.945 314.535C505.945 330.019 502.75 344.743 496.985 358.085L525.531 443.32C558.383 410.208 578.664 364.721 578.664 314.465C578.733 213.124 496.152 131 394.332 131C292.512 131 210 213.124 210 314.465C210 415.807 292.512 497.931 394.332 497.931C445.311 497.931 491.498 477.331 524.837 444.011L445.034 413.318L445.103 413.387Z" fill="white"/>
<path d="M430.309 276.653C409.89 256.951 377.316 257.435 357.521 277.689C337.727 298.013 338.213 330.434 358.563 350.135C374.121 365.205 396.832 368.454 415.515 360.09L445.52 389.054C453.021 396.313 465.106 396.175 472.399 388.64C479.691 381.174 479.552 369.146 471.982 361.887L441.978 332.923C449.826 314.12 445.867 291.653 430.309 276.583V276.653Z" fill="white"/>
<path d="M612.141 403.71C612.141 390.575 622.42 379.722 635.616 379.722C641.937 379.722 647.562 382.211 651.66 386.082L646.798 390.506C643.881 387.81 639.922 386.082 635.616 386.082C626.24 386.082 619.086 394.17 619.086 403.71C619.086 413.249 626.309 421.13 635.686 421.13C643.465 421.13 650.063 415.945 650.063 409.24H636.727V403.364H657.633C657.633 419.747 648.813 427.559 635.686 427.559C622.559 427.559 612.071 416.844 612.071 403.779L612.141 403.71Z" fill="white"/>
<path d="M727.296 426.729L715.419 409.516H710.141V426.729H703.195V380.552H720.906C731.046 380.552 735.144 387.879 735.144 395.138C735.144 401.774 731.116 408.756 723.337 409.447L735.492 426.66H727.227L727.296 426.729ZM710.141 386.911V403.502H719.239C725.629 403.502 728.268 400.115 728.268 395.207C728.268 390.299 725.351 386.911 720.837 386.911H710.141Z" fill="white"/>
<path d="M778.831 403.71C778.831 390.575 789.041 379.722 802.237 379.722C815.434 379.722 825.782 390.575 825.782 403.71C825.782 416.844 815.503 427.49 802.237 427.49C788.971 427.49 778.831 416.775 778.831 403.71ZM818.906 403.71C818.906 394.17 811.752 386.151 802.307 386.151C792.861 386.151 785.846 394.17 785.846 403.71C785.846 413.249 792.93 421.061 802.307 421.061C811.683 421.061 818.906 413.18 818.906 403.71Z" fill="white"/>
<path d="M871.761 410.83V380.552H878.706V410.761C878.706 417.812 883.429 420.922 888.847 420.922C894.264 420.922 899.057 417.743 899.057 410.761V380.552H906.002V410.83C906.002 421.406 898.084 427.49 888.847 427.49C879.609 427.49 871.761 421.406 871.761 410.83Z" fill="white"/>
<path d="M973.512 380.552C983.444 380.552 987.68 387.879 987.68 395.138C987.68 402.396 983.513 409.585 973.512 409.585H961.843V426.66H954.898V380.483H973.442L973.512 380.552ZM973.095 403.295C978.512 403.295 980.665 399.216 980.665 395.138C980.665 391.059 978.512 386.842 973.303 386.842H961.774V403.295H973.025H973.095Z" fill="white"/>
</g>
<defs>
<clipPath id="clip0_0_3">
<rect width="779" height="367" fill="white" transform="translate(210 131)"/>
</clipPath>
</defs>
</svg>
