<svg width="1200" height="630" viewBox="0 0 1200 630" fill="none" xmlns="http://www.w3.org/2000/svg">
<rect width="1200" height="630" fill="#2563EB"/>
<path d="M1024 269.042H987.6V336.044C987.6 341.628 988.996 345.708 991.787 348.285C994.579 350.862 998.659 352.365 1004.03 352.795C1009.4 353.009 1016.05 352.902 1024 352.472V390.161C995.438 393.383 975.251 390.698 963.44 382.108C951.844 373.518 946.045 358.163 946.045 336.044V269.042H918.02V229.098H946.045V196.563L987.6 184V229.098H1024V269.042Z" fill="white"/>
<path d="M854.191 256.801C858.057 246.493 864.392 238.762 873.197 233.607C882.216 228.453 892.202 225.876 903.155 225.876V272.263C890.484 270.759 879.102 273.336 869.009 279.994C859.131 286.651 854.191 297.711 854.191 313.173V390.161H812.637V229.098H854.191V256.801Z" fill="white"/>
<path d="M733.415 229.1H774.97V390.163H733.415V371.158C720.96 386.835 703.458 394.673 680.909 394.673C659.434 394.673 640.965 386.513 625.503 370.192C610.256 353.656 602.632 333.469 602.632 309.632C602.632 285.794 610.256 265.715 625.503 249.394C640.965 232.858 659.434 224.59 680.909 224.59C703.458 224.59 720.96 232.429 733.415 248.106V229.1ZM656.749 342.489C665.125 350.864 675.755 355.052 688.64 355.052C701.525 355.052 712.155 350.864 720.53 342.489C729.12 333.899 733.415 322.946 733.415 309.632C733.415 296.317 729.12 285.472 720.53 277.097C712.155 268.507 701.525 264.212 688.64 264.212C675.755 264.212 665.125 268.507 656.749 277.097C648.374 285.472 644.186 296.317 644.186 309.632C644.186 322.946 648.374 333.899 656.749 342.489Z" fill="white"/>
<path d="M514.828 224.59C533.297 224.59 548.007 230.603 558.959 242.629C570.126 254.655 575.71 270.762 575.71 290.948V390.163H534.156V293.848C534.156 284.184 531.793 276.667 527.069 271.299C522.344 265.93 515.687 263.245 507.097 263.245C497.648 263.245 490.239 266.359 484.87 272.587C479.716 278.815 477.139 287.834 477.139 299.646V390.163H435.585V293.848C435.585 284.184 433.223 276.667 428.498 271.299C423.774 265.93 417.116 263.245 408.526 263.245C399.292 263.245 391.883 266.359 386.299 272.587C380.931 278.815 378.246 287.834 378.246 299.646V390.163H336.692V229.1H378.246V246.173C387.91 231.784 402.835 224.59 423.022 224.59C442.779 224.59 457.382 232.321 466.831 247.783C477.569 232.321 493.568 224.59 514.828 224.59Z" fill="white"/>
<path d="M225.285 274.842C225.285 279.137 228.077 282.68 233.661 285.472C239.459 288.049 246.438 290.411 254.599 292.559C262.76 294.492 270.92 297.069 279.081 300.29C287.241 303.297 294.113 308.451 299.697 315.752C305.495 323.054 308.394 332.181 308.394 343.133C308.394 359.669 302.166 372.446 289.711 381.466C277.47 390.271 262.115 394.673 243.647 394.673C210.575 394.673 188.026 381.896 176 356.34L212.078 336.046C216.803 350.005 227.326 356.984 243.647 356.984C258.464 356.984 265.873 352.367 265.873 343.133C265.873 338.838 262.974 335.402 257.176 332.825C251.592 330.033 244.72 327.563 236.56 325.416C228.399 323.268 220.239 320.584 212.078 317.363C203.918 314.142 196.938 309.095 191.14 302.223C185.556 295.136 182.765 286.331 182.765 275.808C182.765 259.917 188.563 247.461 200.16 238.442C211.971 229.207 226.574 224.59 243.969 224.59C257.069 224.59 268.987 227.597 279.725 233.61C290.462 239.408 298.945 247.783 305.173 258.736L269.739 278.063C264.585 267.111 255.995 261.635 243.969 261.635C238.6 261.635 234.09 262.816 230.439 265.178C227.003 267.541 225.285 270.762 225.285 274.842Z" fill="white"/>
</svg>
