<svg width="1080" height="1080" viewBox="0 0 1080 1080" fill="none" xmlns="http://www.w3.org/2000/svg">
<g clip-path="url(#clip0_1_128)">
<rect width="1080" height="1080" fill="white"/>
<path d="M227.53 633.319H140.094V499.439H169.867V604.806H227.53V633.319Z" fill="#1D262D"/>
<path d="M281.779 633.319H253.136V539.471H281.779V633.319Z" fill="#1D262D"/>
<path d="M343.707 633.319H315.064V539.471H342.388V550.234C347.099 541.926 359.159 536.639 369.335 536.639C382.714 536.639 392.324 542.115 397.035 551.367C404.384 540.793 413.429 536.639 426.055 536.639C443.768 536.639 460.728 547.024 460.728 572.516V633.319H433.027V578.936C433.027 570.061 428.316 563.075 418.14 563.075C407.965 563.075 402.5 570.817 402.5 579.125V633.319H374.234V578.936C374.234 570.061 369.523 563.075 359.159 563.075C349.172 563.075 343.707 570.817 343.707 579.314V633.319Z" fill="#1D262D"/>
<path d="M514.781 575.16H552.28C551.904 567.984 547.004 559.298 533.436 559.298C521.376 559.298 515.346 568.173 514.781 575.16ZM554.353 599.519L578.285 606.317C573.763 622.556 558.876 636.152 535.132 636.152C509.316 636.152 486.327 617.647 486.327 586.112C486.327 555.899 508.751 536.639 533.06 536.639C562.079 536.639 579.981 554.577 579.981 584.79C579.981 588.756 579.604 593.099 579.416 593.665H514.216C514.781 604.24 524.391 611.793 535.509 611.793C545.874 611.793 551.715 606.883 554.353 599.519Z" fill="#1D262D"/>
<path d="M635.207 633.319H606.565V496.607H635.207V633.319Z" fill="#1D262D"/>
<path d="M267.644 493.963C258.599 493.963 251.061 501.516 251.061 510.769C251.061 520.021 258.599 527.575 267.644 527.575C277.066 527.575 284.604 520.021 284.604 510.769C284.604 501.516 277.066 493.963 267.644 493.963Z" fill="#1D262D"/>
<path d="M874.894 575.16H912.393C912.016 567.984 907.117 559.298 893.549 559.298C881.489 559.298 875.459 568.173 874.894 575.16ZM914.466 599.519L938.398 606.317C933.875 622.556 918.989 636.152 895.245 636.152C869.429 636.152 846.439 617.646 846.439 586.112C846.439 555.899 868.864 536.638 893.172 536.638C922.192 536.638 940.094 554.577 940.094 584.79C940.094 588.755 939.717 593.099 939.529 593.665H874.328C874.894 604.24 884.504 611.793 895.622 611.793C905.986 611.793 911.828 606.883 914.466 599.519Z" fill="#1D262D"/>
<path d="M807.557 512.672V540.052H825.836V565.167H807.557V600.289C807.557 608.031 811.703 610.108 817.921 610.108C820.936 610.108 823.763 609.542 825.459 609.164V632.957C824.328 633.523 819.617 635.6 810.572 635.6C791.163 635.6 779.291 624.082 779.291 605.388V565.167H762.708V540.052H767.419C777.218 540.052 781.929 533.443 781.929 524.757V512.672H807.557Z" fill="#1D262D"/>
<path d="M710.263 441.578H707.614V449.039H710.263V441.578Z" fill="#1D262D"/>
<path d="M698.123 464.007C698.167 463.698 702.273 447.45 702.273 447.45C706.511 445.507 710.837 445.595 715.251 447.45L718.96 464.007H698.123Z" fill="#1D262D"/>
<path d="M718.96 464.051L698.123 464.095L651.485 627.396H764.546L718.96 464.051Z" fill="url(#paint0_linear_1_128)" fill-opacity="0.6"/>
<path d="M708.541 467.539C714.295 467.539 718.96 465.958 718.96 464.007C718.96 462.056 714.295 460.475 708.541 460.475C702.787 460.475 698.123 462.056 698.123 464.007C698.123 465.958 702.787 467.539 708.541 467.539Z" fill="#1D262D"/>
<path d="M718.916 464.007C718.916 464.007 718.916 463.83 718.783 463.565C718.695 463.301 718.386 462.903 717.9 462.594C716.973 461.932 715.34 461.358 713.265 461.005C711.19 460.651 708.674 460.519 705.937 460.74C704.568 460.872 703.111 461.093 701.655 461.49C700.948 461.711 700.198 461.976 699.536 462.373C699.227 462.55 698.873 462.771 698.609 463.08C698.344 463.345 698.167 463.698 698.167 464.051C698.167 464.404 698.344 464.758 698.609 465.022C698.873 465.287 699.182 465.508 699.536 465.729C700.198 466.126 700.904 466.391 701.655 466.612C703.111 467.053 704.524 467.274 705.937 467.363C708.718 467.583 711.19 467.451 713.265 467.098C715.34 466.744 716.973 466.17 717.9 465.508C718.386 465.155 718.651 464.802 718.783 464.537C718.916 464.184 718.916 464.007 718.916 464.007C718.916 464.007 718.96 464.184 718.827 464.493C718.739 464.802 718.43 465.199 717.988 465.552C717.017 466.259 715.384 466.877 713.309 467.23C711.234 467.583 708.718 467.76 705.937 467.539C704.568 467.407 703.111 467.186 701.61 466.789C700.86 466.568 700.154 466.303 699.447 465.906C699.094 465.685 698.785 465.464 698.476 465.155C698.211 464.846 697.946 464.449 697.946 464.007C697.946 463.565 698.167 463.168 698.476 462.859C698.741 462.55 699.094 462.329 699.447 462.108C700.154 461.711 700.86 461.446 701.61 461.225C703.067 460.784 704.524 460.563 705.937 460.475C708.718 460.254 711.234 460.431 713.309 460.784C715.384 461.181 717.017 461.755 717.988 462.462C718.474 462.815 718.739 463.212 718.827 463.521C718.96 463.83 718.916 464.007 718.916 464.007Z" fill="#1D262D"/>
<path d="M708.1 639.154C739.405 639.154 764.783 634.074 764.783 627.807C764.783 621.54 739.405 616.46 708.1 616.46C676.795 616.46 651.417 621.54 651.417 627.807C651.417 634.074 676.795 639.154 708.1 639.154Z" fill="#2BC48A" fill-opacity="0.4"/>
<path d="M715.561 468.157C715.561 468.157 715.34 468.245 714.942 468.334C714.545 468.422 713.971 468.555 713.221 468.643C711.764 468.864 709.689 468.996 707.438 468.864C705.186 468.731 703.156 468.29 701.743 467.892C701.037 467.672 700.463 467.495 700.065 467.362C699.668 467.23 699.447 467.142 699.492 467.098C699.492 467.098 699.712 467.142 700.11 467.274C700.507 467.407 701.081 467.539 701.787 467.76C703.2 468.113 705.23 468.51 707.438 468.643C709.689 468.775 711.72 468.643 713.177 468.466C713.927 468.378 714.501 468.29 714.898 468.201C715.34 468.157 715.561 468.157 715.561 468.157Z" fill="#2BC48A"/>
<path d="M683.418 618.534C683.418 618.534 683.383 618.537 683.348 618.54C683.278 618.546 683.209 618.553 683.104 618.563C682.895 618.582 682.585 618.647 682.201 618.683C681.817 618.718 681.333 618.8 680.778 618.887C680.224 618.975 679.599 619.069 678.874 619.209C676.07 619.687 672.233 620.405 668.001 621.414C663.805 622.42 660.001 623.497 657.307 624.399C655.977 624.849 654.888 625.239 654.141 625.526C653.768 625.669 653.495 625.767 653.293 625.858C653.192 625.904 653.122 625.91 653.055 625.953C653.021 625.956 652.989 625.995 652.986 625.959C652.986 625.959 653.021 625.956 653.052 625.917C653.119 625.875 653.188 625.868 653.255 625.826C653.457 625.734 653.726 625.601 654.1 625.458C654.843 625.135 655.894 624.711 657.259 624.259C659.95 623.321 663.718 622.247 667.95 621.238C672.182 620.229 676.018 619.511 678.826 619.069C679.52 618.968 680.179 618.871 680.733 618.783C681.288 618.695 681.776 618.65 682.159 618.614C682.543 618.579 682.857 618.549 683.066 618.53C683.171 618.52 683.24 618.514 683.31 618.507C683.383 618.537 683.418 618.534 683.418 618.534Z" fill="#2BC48A"/>
<path d="M721.835 618.998C721.835 626.907 715.423 633.319 707.514 633.319C699.604 633.319 693.192 626.908 693.192 618.998V553.792C693.192 545.883 699.604 539.471 707.514 539.471C715.423 539.471 721.835 545.883 721.835 553.792V618.998Z" fill="#2BC48A"/>
<path d="M707.326 493.963C698.28 493.963 690.743 501.516 690.743 510.769C690.743 520.021 698.28 527.575 707.326 527.575C716.748 527.575 724.285 520.021 724.285 510.769C724.285 501.516 716.748 493.963 707.326 493.963Z" fill="#2BC48A"/>
</g>
<defs>
<linearGradient id="paint0_linear_1_128" x1="711.837" y1="464.002" x2="780.1" y2="609.051" gradientUnits="userSpaceOnUse">
<stop stop-color="#2BC48A"/>
<stop offset="1" stop-color="#2BC48A" stop-opacity="0"/>
</linearGradient>
<clipPath id="clip0_1_128">
<rect width="1080" height="1080" fill="white"/>
</clipPath>
</defs>
</svg>
